<svg id="Layer_1" enable-background="new 0 0 512 512" height="512" viewBox="0 0 512 512" width="512" xmlns="http://www.w3.org/2000/svg"><g id="XMLID_888_"><path id="XMLID_1924_" d="m10 462v-412c0-22.091 17.909-40 40-40h412c22.091 0 40 17.909 40 40v412c0 22.091-17.909 40-40 40h-412c-22.091 0-40-17.909-40-40z" fill="#8690a6"/><path id="XMLID_1923_" d="m10 63h492v386h-492z" fill="#f9f9f9" transform="matrix(0 1 -1 0 512 0)"/><circle id="XMLID_2721_" cx="256" cy="256" fill="#fff" r="144"/><path id="XMLID_1870_" d="m256 112v51c51.363 0 93 41.638 93 93s-41.637 93-93 93-93-41.638-93-93h-51c0 79.529 64.471 144 144 144s144-64.471 144-144-64.471-144-144-144z" fill="#f5737f"/><g id="XMLID_325_"><path id="XMLID_328_" d="m462 0h-412c-27.57 0-50 22.43-50 50v412c0 27.57 22.43 50 50 50h412c27.57 0 50-22.43 50-50v-412c0-27.57-22.43-50-50-50zm-408 246h-34v-62h34zm-34 20h34v62h-34zm34-102h-34v-62h34zm-34 184h34v62h-34zm54-328h364v472h-364zm384 164h34v62h-34zm0 82h34v62h-34zm34-102h-34v-62h34zm-34 184h34v62h-34zm34-298v32h-34v-62h4c16.542 0 30 13.458 30 30zm-442-30h4v62h-34v-32c0-16.542 13.458-30 30-30zm-30 442v-32h34v62h-4c-16.542 0-30-13.458-30-30zm442 30h-4v-62h34v32c0 16.542-13.458 30-30 30z"/><path id="XMLID_1496_" d="m256 102c-24.625 0-48.159 5.641-69.947 16.767-4.918 2.512-6.87 8.535-4.358 13.454 2.512 4.918 8.534 6.868 13.454 4.358 15.976-8.158 33.042-12.91 50.851-14.204v53.625c0 5.523 4.477 10 10 10s10-4.477 10-10v-2.376c37.784 4.561 67.815 34.593 72.376 72.376h-2.376c-5.523 0-10 4.477-10 10s4.477 10 10 10h2.376c-4.561 37.784-34.593 67.815-72.376 72.376v-2.376c0-5.523-4.477-10-10-10s-10 4.477-10 10v2.376c-37.784-4.561-67.815-34.593-72.376-72.376h2.376c5.523 0 10-4.477 10-10s-4.477-10-10-10h-53.625c1.294-17.809 6.046-34.875 14.204-50.851 2.512-4.919.56-10.942-4.358-13.454-4.92-2.511-10.942-.559-13.454 4.358-11.126 21.788-16.767 45.322-16.767 69.947 0 84.916 69.084 154 154 154s154-69.084 154-154-69.084-154-154-154zm10 51.487v-31.114c65.933 4.887 118.74 57.694 123.627 123.627h-31.114c-4.726-48.828-43.685-87.787-92.513-92.513zm-143.627 112.513h31.114c4.727 48.828 43.685 87.787 92.513 92.513v31.114c-65.933-4.887-118.74-57.694-123.627-123.627zm143.627 123.627v-31.114c48.828-4.727 87.787-43.685 92.513-92.513h31.114c-4.887 65.933-57.694 118.74-123.627 123.627z"/><path id="XMLID_1500_" d="m256 286c-4.962 0-9.219-3.694-9.903-8.59-.064-.463-.097-.938-.097-1.41 0-5.523-4.477-10-10-10s-10 4.477-10 10c0 1.392.097 2.794.289 4.172 2.055 14.724 14.828 25.828 29.711 25.828 16.542 0 30-13.458 30-30 0-7.678-2.902-14.688-7.663-20 4.761-5.312 7.663-12.322 7.663-20 0-16.542-13.458-30-30-30-14.303 0-26.683 10.176-29.437 24.196-1.064 5.419 2.466 10.675 7.885 11.74 5.419 1.062 10.675-2.466 11.74-7.885.917-4.665 5.043-8.051 9.812-8.051 5.514 0 10 4.486 10 10s-4.486 10-10 10c-5.523 0-10 4.477-10 10s4.477 10 10 10c5.514 0 10 4.486 10 10s-4.486 10-10 10z"/><path id="XMLID_1501_" d="m154.18 164.18c2.63 0 5.21-1.07 7.07-2.93s2.93-4.44 2.93-7.07-1.07-5.21-2.93-7.07c-1.86-1.87-4.44-2.93-7.07-2.93s-5.21 1.06-7.07 2.93c-1.86 1.86-2.93 4.43-2.93 7.07 0 2.63 1.07 5.21 2.93 7.07s4.43 2.93 7.07 2.93z"/></g></g></svg>